<?xml version="1.0" encoding="utf-8"?>
<!-- Generator: Adobe Illustrator 23.0.1, SVG Export Plug-In . SVG Version: 6.00 Build 0)  -->
<svg version="1.1" xmlns="http://www.w3.org/2000/svg" xmlns:xlink="http://www.w3.org/1999/xlink" x="0px" y="0px"
	 viewBox="0 0 1134 600" style="enable-background:new 0 0 1134 600;" xml:space="preserve">
<style type="text/css">
	.st0{display:none;}
	.st1{display:inline;}
	.st2{fill:#151817;}
	.st3{opacity:0.7;}
	.st4{fill:#FFFFFF;}
</style>
<g id="Layer_1" class="st0">
	<g class="st1">
		<rect x="-393" y="-240" class="st2" width="1920" height="1080"/>
	</g>
</g>
<g id="Layer_2">
	<g class="st3">
		<g>
			<g>
				<path class="st4" d="M750.48,336.29c-0.99,1.67-1.96,3.3-2.9,4.89h234.98l1.95-4.89H750.48z"/>
			</g>
			<g>
				<path class="st4" d="M757.27,324.87c-0.99,1.66-1.96,3.29-2.92,4.89h232.75l1.95-4.89H757.27z"/>
			</g>
			<g>
				<path class="st4" d="M743.73,347.7c-0.99,1.68-1.95,3.31-2.88,4.89h237.15l1.95-4.89H743.73z"/>
			</g>
			<g>
				<path class="st4" d="M737.04,359.12c-0.99,1.7-1.94,3.33-2.84,4.89h239.25l1.95-4.89H737.04z"/>
			</g>
			<g>
				<path class="st4" d="M882.58,381.95c-0.01,1.64-0.01,3.27-0.02,4.89h59.87c0-1.47,0.02-3.1,0.05-4.89H882.58z"/>
			</g>
			<g>
				<path class="st4" d="M800.65,306.93l2.78-4.89h-32.49c-0.46,0.76-0.91,1.53-1.37,2.29c-0.52,0.87-1.04,1.74-1.56,2.6H800.65z"/>
			</g>
			<g>
				<path class="st4" d="M865.41,192.77l2.78-4.89h-30.04c-0.93,1.62-1.87,3.25-2.82,4.89H865.41z"/>
			</g>
			<g>
				<path class="st4" d="M858.93,204.19l2.78-4.89h-30.16c-0.94,1.62-1.88,3.25-2.84,4.89H858.93z"/>
			</g>
			<g>
				<path class="st4" d="M852.46,215.6l2.78-4.89h-30.31c-0.94,1.62-1.89,3.25-2.85,4.89H852.46z"/>
			</g>
			<g>
				<path class="st4" d="M851.18,165.05c-0.91,1.61-1.84,3.24-2.78,4.89h29.95l2.78-4.89H851.18z"/>
			</g>
			<g>
				<path class="st4" d="M871.88,181.36l2.78-4.89h-29.97c-0.92,1.61-1.86,3.24-2.8,4.89H871.88z"/>
			</g>
			<g>
				<path class="st4" d="M845.98,227.02l2.77-4.89h-30.5c-0.95,1.62-1.9,3.25-2.86,4.89H845.98z"/>
			</g>
			<g>
				<path class="st4" d="M882.53,393.37c-0.01,1.65-0.02,3.28-0.04,4.89h59.94v-4.89H882.53z"/>
			</g>
			<g>
				<path class="st4" d="M880.4,484.69c-0.07,1.64-0.15,3.27-0.22,4.89h64.8c-0.09-1.64-0.18-3.27-0.26-4.89H880.4z"/>
			</g>
			<g>
				<path class="st4" d="M882.61,370.53c0,1.64-0.01,3.27-0.01,4.89h60.06c0.01-0.35,0.02-0.69,0.03-1.05
					c0.05-1.42,0.09-2.69,0.12-3.84H882.61z"/>
			</g>
			<g>
				<polygon class="st4" points="883.27,222.13 883.24,227.02 942.96,227.02 942.96,222.91 942.96,222.13 				"/>
			</g>
			<g>
				<path class="st4" d="M880.87,473.28c-0.06,1.64-0.13,3.27-0.19,4.89h63.71c-0.08-1.64-0.16-3.27-0.23-4.89H880.87z"/>
			</g>
			<g>
				<path class="st4" d="M881.89,439.03c-0.04,1.64-0.07,3.27-0.11,4.89h61.26c-0.05-1.64-0.09-3.27-0.13-4.89H881.89z"/>
			</g>
			<g>
				<path class="st4" d="M881.27,461.86c-0.05,1.64-0.11,3.27-0.16,4.89h62.75c-0.07-1.64-0.14-3.27-0.2-4.89H881.27z"/>
			</g>
			<g>
				<path class="st4" d="M882.12,427.61c-0.03,1.65-0.06,3.28-0.09,4.89h60.72c-0.04-1.64-0.07-3.27-0.1-4.89H882.12z"/>
			</g>
			<g>
				<path class="st4" d="M882.3,416.2c-0.02,1.65-0.05,3.28-0.07,4.89h60.32c-0.02-1.64-0.04-3.27-0.06-4.89H882.3z"/>
			</g>
			<g>
				<path class="st4" d="M881.61,450.44c-0.04,1.64-0.09,3.27-0.14,4.89h61.94c-0.06-1.64-0.12-3.27-0.17-4.89H881.61z"/>
			</g>
			<g>
				<path class="st4" d="M882.43,404.78c-0.02,1.65-0.03,3.28-0.05,4.89h60.07c-0.01-1.64-0.01-3.27-0.01-4.89H882.43z"/>
			</g>
			<g>
				<path class="st4" d="M876.47,119.39c-0.86,1.6-1.73,3.23-2.63,4.89h69.25c0.02-1.58,0.05-3.21,0.08-4.89H876.47z"/>
			</g>
			<g>
				<polygon class="st4" points="883.42,199.3 883.39,204.19 942.96,204.19 942.96,199.3 				"/>
			</g>
			<g>
				<polygon class="st4" points="883.58,176.46 883.54,181.36 942.96,181.36 942.96,176.46 				"/>
			</g>
			<g>
				<polygon class="st4" points="883.05,256.38 883.02,261.27 942.96,261.27 942.96,256.38 				"/>
			</g>
			<g>
				<path class="st4" d="M839.51,238.44l2.77-4.89h-30.71c-0.95,1.62-1.91,3.25-2.88,4.89H839.51z"/>
			</g>
			<g>
				<polygon class="st4" points="883.2,233.54 883.17,238.44 942.96,238.44 942.96,233.54 				"/>
			</g>
			<g>
				<polygon class="st4" points="883.12,244.96 883.09,249.85 942.96,249.85 942.96,244.96 				"/>
			</g>
			<g>
				<polygon class="st4" points="883.35,210.71 883.32,215.6 942.96,215.6 942.96,210.71 				"/>
			</g>
			<g>
				<polygon class="st4" points="883.65,165.05 883.62,169.94 942.96,169.94 942.96,165.05 				"/>
			</g>
			<g>
				<path class="st4" d="M870.28,130.8c-0.88,1.6-1.77,3.23-2.68,4.89h75.36c0.01-1.55,0.02-3.18,0.03-4.89H870.28z"/>
			</g>
			<g>
				<path class="st4" d="M882.51,107.97c-0.83,1.59-1.69,3.22-2.57,4.89h63.35c0.04-1.78,0.07-3.41,0.09-4.89H882.51z"/>
			</g>
			<g>
				<path class="st4" d="M857.62,153.63c-0.9,1.61-1.82,3.24-2.75,4.89h88.09v-4.89H857.62z"/>
			</g>
			<g>
				<path class="st4" d="M864,142.22c-0.89,1.61-1.8,3.24-2.72,4.89h81.68v-4.89H864z"/>
			</g>
			<g>
				<polygon class="st4" points="883.5,187.88 883.47,192.77 942.96,192.77 942.96,187.88 				"/>
			</g>
			<g>
				<path class="st4" d="M820.08,272.68l2.78-4.89h-31.51c-0.96,1.62-1.93,3.25-2.91,4.89H820.08z"/>
			</g>
			<g>
				<path class="st4" d="M813.6,284.1l2.78-4.89h-31.82c-0.96,1.62-1.94,3.25-2.91,4.89H813.6z"/>
			</g>
			<g>
				<path class="st4" d="M807.13,295.52l2.78-4.89h-32.15c-0.97,1.62-1.94,3.25-2.92,4.89H807.13z"/>
			</g>
			<g>
				<path class="st4" d="M833.03,249.85l2.77-4.89h-30.95c-0.95,1.62-1.92,3.25-2.89,4.89H833.03z"/>
			</g>
			<g>
				<path class="st4" d="M826.55,261.27l2.78-4.89h-31.22c-0.96,1.62-1.92,3.25-2.9,4.89H826.55z"/>
			</g>
			<g>
				<polygon class="st4" points="882.9,279.21 882.87,284.1 942.96,284.1 942.96,279.21 				"/>
			</g>
			<g>
				<path class="st4" d="M794.18,318.35l2.78-4.89h-32.86c-0.99,1.66-1.97,3.29-2.93,4.89H794.18z"/>
			</g>
			<g>
				<polygon class="st4" points="882.97,267.79 882.94,272.68 942.96,272.68 942.96,267.79 				"/>
			</g>
			<g>
				<polygon class="st4" points="882.82,290.62 882.79,295.52 942.96,295.52 942.96,290.62 				"/>
			</g>
			<g>
				<polygon class="st4" points="882.75,302.04 882.72,306.93 942.96,306.93 942.96,302.04 				"/>
			</g>
			<g>
				<polygon class="st4" points="882.67,313.45 882.64,318.35 942.96,318.35 942.96,313.45 				"/>
			</g>
		</g>
		<g>
			<g>
				<path class="st4" d="M499.92,261.27c0.16-1.63,0.32-3.26,0.5-4.89h-54.11c-0.35,1.63-0.69,3.26-1.02,4.89H499.92z"/>
			</g>
			<g>
				<path class="st4" d="M499.01,272.68c0.1-1.63,0.22-3.26,0.35-4.89h-55.29c-0.29,1.63-0.57,3.26-0.84,4.89H499.01z"/>
			</g>
			<g>
				<path class="st4" d="M498.47,284.1c0.05-1.63,0.11-3.26,0.19-4.89h-56.45c-0.24,1.63-0.46,3.26-0.68,4.89H498.47z"/>
			</g>
			<g>
				<path class="st4" d="M507.33,215.6c0.38-1.63,0.76-3.26,1.16-4.89h-48.81c-0.61,1.62-1.22,3.25-1.8,4.89H507.33z"/>
			</g>
			<g>
				<path class="st4" d="M501.2,249.85c0.21-1.63,0.43-3.26,0.67-4.89h-52.88c-0.41,1.63-0.81,3.26-1.19,4.89H501.2z"/>
			</g>
			<g>
				<path class="st4" d="M504.91,227.02c0.18-0.92,0.36-1.84,0.54-2.75c0.15-0.71,0.3-1.43,0.45-2.14h-50.27
					c-0.54,1.62-1.07,3.25-1.58,4.89H504.91z"/>
			</g>
			<g>
				<path class="st4" d="M510.16,204.19c0.43-1.63,0.87-3.26,1.33-4.89H464.3c-0.7,1.62-1.38,3.25-2.05,4.89H510.16z"/>
			</g>
			<g>
				<path class="st4" d="M498.29,295.52c0-0.05,0-0.09,0-0.14c0-1.59,0.01-3.17,0.03-4.76h-57.57c-0.18,1.63-0.36,3.26-0.52,4.89
					H498.29z"/>
			</g>
			<g>
				<path class="st4" d="M507.74,364.01c-0.53-1.6-1.04-3.23-1.52-4.89h-66.37c0.17,1.64,0.35,3.27,0.55,4.89H507.74z"/>
			</g>
			<g>
				<path class="st4" d="M512.08,375.43c-0.7-1.6-1.36-3.23-2-4.89h-68.81c0.25,1.64,0.51,3.27,0.79,4.89H512.08z"/>
			</g>
			<g>
				<path class="st4" d="M504.46,352.59c-0.4-1.61-0.78-3.24-1.14-4.89h-64.37c0.09,1.64,0.2,3.27,0.33,4.89H504.46z"/>
			</g>
			<g>
				<path class="st4" d="M500.29,329.76c-0.2-1.61-0.39-3.24-0.56-4.89h-61.17c-0.03,1.63-0.04,3.26-0.05,4.89H500.29z"/>
			</g>
			<g>
				<path class="st4" d="M502.03,341.18c-0.29-1.61-0.57-3.24-0.83-4.89h-62.66c0.03,1.64,0.07,3.27,0.12,4.89H502.03z"/>
			</g>
			<g>
				<path class="st4" d="M499.15,318.35c-0.12-1.61-0.24-3.24-0.33-4.89h-59.88c-0.08,1.63-0.14,3.26-0.2,4.89H499.15z"/>
			</g>
			<g>
				<path class="st4" d="M517.82,386.84c-0.92-1.59-1.8-3.22-2.65-4.89h-71.89c0.33,1.64,0.69,3.27,1.06,4.89H517.82z"/>
			</g>
			<g>
				<path class="st4" d="M498.5,306.93c-0.06-1.62-0.1-3.25-0.14-4.89h-58.7c-0.13,1.63-0.26,3.26-0.36,4.89H498.5z"/>
			</g>
			<g>
				<path class="st4" d="M493.51,473.28c1.03,0.86,2.07,1.71,3.13,2.53c1.07,0.8,2.16,1.59,3.26,2.36h102.38l6.63-4.89H493.51z"/>
			</g>
			<g>
				<path class="st4" d="M464.66,439.03c0.99,1.66,2.01,3.29,3.04,4.89h181l0.28-0.2c1.41-1.53,2.79-3.1,4.15-4.69H464.66z"/>
			</g>
			<g>
				<path class="st4" d="M510.16,484.69c3,1.72,6.1,3.35,9.29,4.89h67.35l6.63-4.89H510.16z"/>
			</g>
			<g>
				<path class="st4" d="M535.09,496.11c6.65,2.37,12.7,4,18.16,4.89h14.76c1.73-0.45,3.79-1.16,6.16-2.1l3.79-2.79H535.09z"/>
			</g>
			<g>
				<path class="st4" d="M515.51,135.69H659.6c-1.58-1.56-3.18-3.1-4.84-4.59c-0.11-0.1-0.23-0.2-0.35-0.31H522.07L515.51,135.69z"
					/>
			</g>
			<g>
				<path class="st4" d="M640.69,272.68h64.7c0-0.58,0.01-1.15,0.01-1.72c0-1.07-0.02-2.11-0.03-3.17h-65.36
					C640.26,269.4,640.48,271.04,640.69,272.68z"/>
			</g>
			<g>
				<path class="st4" d="M610.07,192.77h84.24c-0.44-1.33-0.89-2.64-1.36-3.94c-0.12-0.32-0.24-0.63-0.36-0.95h-86.68
					C607.33,189.45,608.71,191.08,610.07,192.77z"/>
			</g>
			<g>
				<path class="st4" d="M516.98,181.36c0.55-1.63,1.1-3.26,1.67-4.89h-43.17c-0.9,1.62-1.78,3.25-2.64,4.89H516.98z"/>
			</g>
			<g>
				<path class="st4" d="M481.56,461.86c1.54,1.68,3.11,3.31,4.73,4.89h131.47l6.63-4.89H481.56z"/>
			</g>
			<g>
				<path class="st4" d="M513.37,192.77c0.49-1.63,0.99-3.26,1.5-4.89h-45.34c-0.79,1.62-1.56,3.25-2.33,4.89H513.37z"/>
			</g>
			<g>
				<path class="st4" d="M482.23,165.05c-1.02,1.61-2.01,3.25-3,4.89h41.78c0.61-1.63,1.22-3.26,1.85-4.89H482.23z"/>
			</g>
			<g>
				<path class="st4" d="M502.86,238.44c0.26-1.63,0.54-3.26,0.83-4.89h-51.61c-0.23,0.8-0.47,1.59-0.7,2.4
					c-0.23,0.83-0.45,1.67-0.68,2.5H502.86z"/>
			</g>
			<g>
				<path class="st4" d="M544.04,416.2h-90.58c0.06,0.15,0.11,0.3,0.17,0.44c0.61,1.5,1.23,2.99,1.87,4.45h96.16
					C549.02,419.58,546.48,417.95,544.04,416.2z"/>
			</g>
			<g>
				<path class="st4" d="M472.18,450.44c1.22,1.67,2.48,3.3,3.77,4.89h157.28l6.63-4.89H472.18z"/>
			</g>
			<g>
				<path class="st4" d="M638.03,256.38c0.33,1.61,0.63,3.25,0.93,4.89h66.31c-0.05-1.64-0.1-3.27-0.17-4.89H638.03z"/>
			</g>
			<g>
				<path class="st4" d="M627.51,222.13c0.69,1.61,1.36,3.24,2.01,4.89h72.82c-0.25-1.65-0.51-3.28-0.79-4.89H627.51z"/>
			</g>
			<g>
				<path class="st4" d="M593.8,176.46c1.95,1.54,3.84,3.18,5.69,4.89h90.54c-0.69-1.65-1.39-3.28-2.13-4.89H593.8z"/>
			</g>
			<g>
				<path class="st4" d="M642.34,290.62c0.1,1.62,0.18,3.25,0.25,4.89h62c0.11-1.63,0.22-3.25,0.3-4.89H642.34z"/>
			</g>
			<g>
				<path class="st4" d="M621.95,210.71c0.88,1.6,1.73,3.23,2.55,4.89h75.82c-0.33-1.65-0.68-3.28-1.05-4.89H621.95z"/>
			</g>
			<g>
				<path class="st4" d="M631.91,233.54c0.55,1.61,1.08,3.24,1.59,4.89h70.29c-0.17-1.65-0.36-3.28-0.56-4.89H631.91z"/>
			</g>
			<g>
				<path class="st4" d="M641.44,279.21c0.16,1.62,0.31,3.25,0.44,4.89h63.29c0.06-1.62,0.09-3.26,0.13-4.89H641.44z"/>
			</g>
			<g>
				<path class="st4" d="M635.37,244.96c0.43,1.61,0.83,3.24,1.22,4.89h68.15c-0.11-1.64-0.23-3.27-0.36-4.89H635.37z"/>
			</g>
			<g>
				<path class="st4" d="M614.93,199.3c1.11,1.6,2.18,3.23,3.23,4.89h79.52c-0.43-1.65-0.88-3.28-1.35-4.89H614.93z"/>
			</g>
			<g>
				<path class="st4" d="M552.69,107.97l-6.56,4.89h82.57c-3.3-1.76-6.69-3.39-10.18-4.89H552.69z"/>
			</g>
			<g>
				<path class="st4" d="M570.71,99.66c-2.76,0.41-5.67,1.01-8.72,1.78h37.2C592.38,99.82,585.8,99,579.47,99
					C576.63,99,573.72,99.22,570.71,99.66z"/>
			</g>
			<g>
				<path class="st4" d="M537.38,119.39l-6.56,4.89h115.71c-2.24-1.7-4.53-3.34-6.87-4.89H537.38z"/>
			</g>
			<g>
				<path class="st4" d="M491.45,153.63l-3.26,2.43c-0.57,0.81-1.12,1.64-1.68,2.46h38.94c0.41-1,0.81-1.99,1.23-2.99h2.12
					c9.71,0,18.84,1,27.39,2.99h121.9c-1.07-1.66-2.15-3.29-3.28-4.89H491.45z"/>
			</g>
			<g>
				<path class="st4" d="M575.28,165.05c3.16,1.46,6.22,3.09,9.17,4.89H684.7c-0.86-1.65-1.74-3.29-2.65-4.89H575.28z"/>
			</g>
			<g>
				<path class="st4" d="M506.76,142.22l-6.56,4.89h169.69c-1.33-1.67-2.71-3.29-4.13-4.89H506.76z"/>
			</g>
			<g>
				<path class="st4" d="M642.06,336.29c-0.1,1.64-0.22,3.27-0.34,4.89h56.61c0.35-1.62,0.68-3.26,1-4.89H642.06z"/>
			</g>
			<g>
				<path class="st4" d="M628.23,416.2c-0.5,1.64-1,3.27-1.52,4.89h39.82c1.05-1.61,2.08-3.24,3.08-4.89H628.23z"/>
			</g>
			<g>
				<path class="st4" d="M642.8,302.04c0.04,1.62,0.06,3.25,0.07,4.89h60.77c0.16-1.62,0.32-3.25,0.46-4.89H642.8z"/>
			</g>
			<g>
				<path class="st4" d="M634.18,393.37c-0.36,1.64-0.73,3.27-1.12,4.89h46.23c0.77-1.61,1.52-3.24,2.26-4.89H634.18z"/>
			</g>
			<g>
				<path class="st4" d="M624.53,427.61c-0.57,1.64-1.15,3.27-1.75,4.89h35.67c1.24-1.6,2.45-3.23,3.64-4.89H624.53z"/>
			</g>
			<g>
				<path class="st4" d="M636.49,381.95c-0.3,1.64-0.61,3.27-0.94,4.89h48.79c0.66-1.61,1.31-3.24,1.94-4.89H636.49z"/>
			</g>
			<g>
				<path class="st4" d="M535.98,409.67c-1.71-1.56-3.37-3.19-4.97-4.89h-81.7c0.54,1.64,1.1,3.28,1.68,4.89H535.98z"/>
			</g>
			<g>
				<path class="st4" d="M582.55,432.51c-5.99-1.24-11.66-2.87-17.01-4.89H458.52c0.81,1.66,1.64,3.29,2.49,4.89H582.55z"/>
			</g>
			<g>
				<path class="st4" d="M631.43,404.78c-0.43,1.64-0.86,3.27-1.31,4.89h43.29c0.89-1.61,1.77-3.24,2.63-4.89H631.43z"/>
			</g>
			<g>
				<path class="st4" d="M525.44,398.26c-1.23-1.58-2.41-3.21-3.55-4.89h-75.95c0.43,1.64,0.88,3.27,1.35,4.89H525.44z"/>
			</g>
			<g>
				<path class="st4" d="M642.61,324.87c-0.06,1.64-0.12,3.27-0.2,4.89h58.12c0.28-1.62,0.55-3.26,0.8-4.89H642.61z"/>
			</g>
			<g>
				<path class="st4" d="M642.87,313.45c-0.01,1.64-0.04,3.27-0.07,4.89h59.5c0.22-1.62,0.43-3.26,0.63-4.89H642.87z"/>
			</g>
			<g>
				<path class="st4" d="M641.18,347.7c-0.15,1.64-0.31,3.27-0.48,4.89h54.94c0.42-1.62,0.81-3.26,1.2-4.89H641.18z"/>
			</g>
			<g>
				<path class="st4" d="M639.97,359.12c-0.2,1.64-0.4,3.27-0.62,4.89h53.1c0.49-1.62,0.96-3.25,1.43-4.89H639.97z"/>
			</g>
			<g>
				<path class="st4" d="M638.41,370.53c-0.25,1.64-0.5,3.27-0.77,4.89h51.06c0.57-1.61,1.12-3.25,1.67-4.89H638.41z"/>
			</g>
		</g>
		<g>
			<g>
				<polygon class="st4" points="353.69,295.52 353.69,290.62 293.56,290.62 293.53,295.52 				"/>
			</g>
			<g>
				<polygon class="st4" points="353.69,318.35 353.69,313.45 293.41,313.45 293.38,318.35 				"/>
			</g>
			<g>
				<polygon class="st4" points="353.69,306.93 353.69,302.04 293.48,302.04 293.45,306.93 				"/>
			</g>
			<g>
				<path class="st4" d="M354.03,112.86c0.04-1.78,0.07-3.41,0.09-4.89h-60.88c-0.83,1.59-1.69,3.22-2.57,4.89H354.03z"/>
			</g>
			<g>
				<path class="st4" d="M353.7,135.69c0.01-1.55,0.02-3.18,0.03-4.89h-72.71c-0.88,1.6-1.77,3.23-2.68,4.89H353.7z"/>
			</g>
			<g>
				<path class="st4" d="M276.14,192.77l2.78-4.89h-30.04c-0.93,1.62-1.87,3.25-2.82,4.89H276.14z"/>
			</g>
			<g>
				<path class="st4" d="M282.62,181.36l2.78-4.89h-29.97c-0.92,1.61-1.86,3.24-2.8,4.89H282.62z"/>
			</g>
			<g>
				<path class="st4" d="M353.69,158.53v-4.89h-85.34c-0.9,1.61-1.82,3.24-2.75,4.89H353.69z"/>
			</g>
			<g>
				<path class="st4" d="M353.69,147.11v-4.89h-78.96c-0.89,1.61-1.8,3.24-2.72,4.89H353.69z"/>
			</g>
			<g>
				<path class="st4" d="M353.81,124.28c0.02-1.58,0.05-3.21,0.08-4.89h-66.7c-0.86,1.6-1.73,3.23-2.63,4.89H353.81z"/>
			</g>
			<g>
				<path class="st4" d="M289.09,169.94l2.78-4.89h-29.95c-0.91,1.61-1.84,3.24-2.78,4.89H289.09z"/>
			</g>
			<g>
				<polygon class="st4" points="353.69,215.6 353.69,210.71 294.08,210.71 294.05,215.6 				"/>
			</g>
			<g>
				<polygon class="st4" points="353.69,204.19 353.69,199.3 294.16,199.3 294.13,204.19 				"/>
			</g>
			<g>
				<polygon class="st4" points="353.69,284.1 353.69,279.21 293.63,279.21 293.6,284.1 				"/>
			</g>
			<g>
				<polygon class="st4" points="353.69,192.77 353.69,187.88 294.23,187.88 294.2,192.77 				"/>
			</g>
			<g>
				<path class="st4" d="M211.39,306.93l2.78-4.89h-32.49c-0.46,0.76-0.91,1.53-1.37,2.29c-0.52,0.87-1.04,1.74-1.56,2.6H211.39z"/>
			</g>
			<g>
				<polygon class="st4" points="353.69,169.94 353.69,165.05 294.39,165.05 294.35,169.94 				"/>
			</g>
			<g>
				<polygon class="st4" points="353.69,181.36 353.69,176.46 294.31,176.46 294.28,181.36 				"/>
			</g>
			<g>
				<polygon class="st4" points="353.69,261.27 353.69,256.38 293.78,256.38 293.75,261.27 				"/>
			</g>
			<g>
				<polygon class="st4" points="353.69,227.02 353.69,222.91 353.69,222.13 294.01,222.13 293.98,227.02 				"/>
			</g>
			<g>
				<polygon class="st4" points="353.69,272.68 353.69,267.79 293.71,267.79 293.68,272.68 				"/>
			</g>
			<g>
				<polygon class="st4" points="353.69,238.44 353.69,233.54 293.93,233.54 293.9,238.44 				"/>
			</g>
			<g>
				<polygon class="st4" points="353.69,249.85 353.69,244.96 293.86,244.96 293.83,249.85 				"/>
			</g>
			<g>
				<path class="st4" d="M204.91,318.35l2.78-4.89h-32.86c-0.99,1.66-1.97,3.29-2.93,4.89H204.91z"/>
			</g>
			<g>
				<path class="st4" d="M353.17,398.26v-4.89h-59.91c-0.01,1.65-0.02,3.28-0.04,4.89H353.17z"/>
			</g>
			<g>
				<path class="st4" d="M353.18,409.67c-0.01-1.64-0.01-3.27-0.01-4.89h-60c-0.02,1.65-0.03,3.28-0.05,4.89H353.18z"/>
			</g>
			<g>
				<path class="st4" d="M384.19,364.01l1.95-4.89H147.78c-0.99,1.7-1.94,3.33-2.84,4.89H384.19z"/>
			</g>
			<g>
				<path class="st4" d="M353.28,421.09c-0.02-1.64-0.04-3.27-0.06-4.89h-60.19c-0.02,1.65-0.05,3.28-0.07,4.89H353.28z"/>
			</g>
			<g>
				<path class="st4" d="M353.17,386.84c0-1.47,0.02-3.1,0.05-4.89h-59.9c-0.01,1.64-0.01,3.27-0.02,4.89H353.17z"/>
			</g>
			<g>
				<path class="st4" d="M353.4,375.43c0.01-0.35,0.02-0.69,0.03-1.05c0.05-1.42,0.09-2.69,0.12-3.84h-60.2
					c0,1.64-0.01,3.27-0.01,4.89H353.4z"/>
			</g>
			<g>
				<path class="st4" d="M353.48,432.51c-0.04-1.64-0.07-3.27-0.1-4.89h-60.53c-0.03,1.65-0.06,3.28-0.09,4.89H353.48z"/>
			</g>
			<g>
				<path class="st4" d="M355.71,489.58c-0.09-1.64-0.18-3.27-0.26-4.89h-64.31c-0.07,1.64-0.15,3.27-0.22,4.89H355.71z"/>
			</g>
			<g>
				<path class="st4" d="M353.77,443.92c-0.05-1.64-0.09-3.27-0.13-4.89h-61.01c-0.04,1.64-0.07,3.27-0.11,4.89H353.77z"/>
			</g>
			<g>
				<path class="st4" d="M355.12,478.17c-0.08-1.64-0.16-3.27-0.23-4.89H291.6c-0.06,1.64-0.13,3.27-0.19,4.89H355.12z"/>
			</g>
			<g>
				<path class="st4" d="M354.59,466.75c-0.07-1.64-0.14-3.27-0.2-4.89H292c-0.05,1.64-0.11,3.27-0.16,4.89H354.59z"/>
			</g>
			<g>
				<path class="st4" d="M354.14,455.34c-0.06-1.64-0.12-3.27-0.17-4.89h-61.63c-0.04,1.64-0.09,3.27-0.14,4.89H354.14z"/>
			</g>
			<g>
				<path class="st4" d="M224.34,284.1l2.78-4.89h-31.82c-0.96,1.62-1.94,3.25-2.91,4.89H224.34z"/>
			</g>
			<g>
				<path class="st4" d="M250.24,238.44l2.78-4.89H222.3c-0.95,1.62-1.91,3.25-2.88,4.89H250.24z"/>
			</g>
			<g>
				<path class="st4" d="M243.76,249.85l2.78-4.89h-30.95c-0.95,1.62-1.92,3.25-2.89,4.89H243.76z"/>
			</g>
			<g>
				<path class="st4" d="M388.74,352.59l1.95-4.89H154.47c-0.99,1.68-1.95,3.31-2.88,4.89H388.74z"/>
			</g>
			<g>
				<path class="st4" d="M237.29,261.27l2.78-4.89h-31.22c-0.96,1.62-1.92,3.25-2.9,4.89H237.29z"/>
			</g>
			<g>
				<path class="st4" d="M263.19,215.6l2.78-4.89h-30.31c-0.94,1.62-1.89,3.25-2.85,4.89H263.19z"/>
			</g>
			<g>
				<path class="st4" d="M256.72,227.02l2.78-4.89h-30.5c-0.95,1.62-1.9,3.25-2.86,4.89H256.72z"/>
			</g>
			<g>
				<path class="st4" d="M393.29,341.18l1.95-4.89H161.22c-0.99,1.67-1.96,3.3-2.9,4.89H393.29z"/>
			</g>
			<g>
				<path class="st4" d="M397.85,329.76l1.95-4.89H168.01c-0.99,1.66-1.96,3.29-2.92,4.89H397.85z"/>
			</g>
			<g>
				<path class="st4" d="M230.81,272.68l2.78-4.89h-31.51c-0.96,1.62-1.93,3.25-2.91,4.89H230.81z"/>
			</g>
			<g>
				<path class="st4" d="M217.86,295.52l2.78-4.89h-32.15c-0.97,1.62-1.94,3.25-2.92,4.89H217.86z"/>
			</g>
			<g>
				<path class="st4" d="M269.67,204.19l2.78-4.89h-30.16c-0.94,1.62-1.88,3.25-2.84,4.89H269.67z"/>
			</g>
		</g>
	</g>
</g>
</svg>
